<svg width="16" height="16" viewBox="0 0 16 16" fill="none" xmlns="http://www.w3.org/2000/svg">
<path d="M4.46667 8.00001C4.46917 8.73886 4.5617 9.47465 4.74223 10.1911H7.62223V5.97778H4.70223C4.54859 6.64097 4.46958 7.31926 4.46667 8.00001Z" fill="#6E2A36"/>
<path d="M8.37781 5.97778V10.1911H11.2578C11.4458 9.47558 11.5458 8.73977 11.5556 8.00001C11.5541 7.31943 11.4766 6.64114 11.3245 5.97778H8.37781Z" fill="#6E2A36"/>
<path d="M8.00003 0.888885C6.59359 0.888885 5.21872 1.30594 4.04931 2.08732C2.87989 2.8687 1.96844 3.97931 1.43022 5.27869C0.891997 6.57808 0.751173 8.00788 1.02556 9.38731C1.29994 10.7667 1.97721 12.0338 2.97172 13.0283C3.96622 14.0228 5.2333 14.7001 6.61272 14.9745C7.99214 15.2489 9.42195 15.108 10.7213 14.5698C12.0207 14.0316 13.1313 13.1201 13.9127 11.9507C14.6941 10.7813 15.1111 9.40644 15.1111 8C15.1111 6.11401 14.3619 4.30527 13.0283 2.97168C11.6948 1.63809 9.88601 0.888885 8.00003 0.888885ZM13.4311 10.9822H11.8223C11.5181 11.9346 11.0683 12.8341 10.4889 13.6489C10.0614 13.8352 9.61408 13.9724 9.15559 14.0578C9.97669 13.1656 10.6086 12.1163 11.0134 10.9733H8.38225V14.1511H7.63114V10.9822H4.9867C5.39088 12.1268 6.02286 13.1776 6.84447 14.0711C6.39543 13.9866 5.95718 13.8525 5.53781 13.6711C4.9564 12.8495 4.50656 11.9423 4.20447 10.9822H2.56892C2.42694 10.7232 2.30366 10.4544 2.20003 10.1778H3.97781C3.81123 9.46368 3.72477 8.73325 3.72003 8C3.72028 7.32032 3.79178 6.64254 3.93336 5.97777H2.11559C2.20905 5.70199 2.32193 5.43317 2.45336 5.17333H4.1467C4.46443 4.11513 4.95717 3.11762 5.60447 2.22222C6.01495 2.05214 6.44263 1.92696 6.88003 1.84889C5.99588 2.7978 5.32862 3.92759 4.92447 5.16H7.63114V1.77777H8.38225V5.17333H11.0889C10.6855 3.9429 10.0198 2.8147 9.13781 1.86666C9.57451 1.93911 10.0022 2.05831 10.4134 2.22222C11.0569 3.11115 11.548 4.10096 11.8667 5.15111H13.5423C13.6737 5.41095 13.7866 5.67977 13.88 5.95555H12.0756C12.2202 6.62742 12.2932 7.31273 12.2934 8C12.2911 8.73754 12.2061 9.4725 12.04 10.1911H13.8178C13.7078 10.4636 13.5786 10.728 13.4311 10.9822Z" fill="#6E2A36"/>
</svg>
